# xmcd
#
# Track frame offsets:
#	150
#	12589
#	25820
#	38675
#	49529
#	57495
#	66135
#	76843
#	90307
#	100756
#	110700
#	121515
#
# Disc length: 1747
#
# Revision: 2
# Processed by: cddbd v1.5.1PL0 Copyright (c) Steve Scherf et al.
# Submitted via: CDex 1.50
# Normalized: r0:TDELIM( - ),TSWAP
#
DISCID=8a06d10c
DTITLE=Varis - Gigantes del Country
DYEAR=2001
DGENRE=Country
TTITLE0=John Cash - Folsom Prison Blues
TTITLE1=Lynn Anderson - Rose Garden
TTITLE2=Kenny Rogers - Ruby Don't Take Your Love To Town
TTITLE3=Buddy Meredith - Lonely In Person
TTITLE4=Willie Nelson - Things To Remember
TTITLE5=Waylon Jennings - Love's Gonna Live Here
TTITLE6=Lynn Anderson - Heaven's Just a Sin Away
TTITLE7=Frankie Lane - California Blood Lines
TTITLE8=George Jones - With Half a Heart
TTITLE9=Dave Dudley - Six Days On The Road
TTITLE10=Roger Cline - Truckers Lady
TTITLE11=Faron Young - Country Girl
EXTD=YEAR: 2001
EXTT0=
EXTT1=
EXTT2=
EXTT3=
EXTT4=
EXTT5=
EXTT6=
EXTT7=
EXTT8=
EXTT9=
EXTT10=
EXTT11=
PLAYORDER=
